<svg width="366" height="1080" viewBox="0 0 366 1080" fill="none" xmlns="http://www.w3.org/2000/svg">
<g clip-path="url(#clip0_16_158)">
<path d="M183.006 180.004C232.693 180.004 272.97 220.296 272.97 270C272.97 319.705 232.693 359.996 183.006 359.996" stroke="#2DEE39" stroke-width="5" stroke-miterlimit="10"/>
<path d="M183.006 89.9958C282.379 89.9958 362.945 170.579 362.945 270C362.945 369.421 282.392 450.004 183.006 450.004" stroke="#2DEE39" stroke-width="5" stroke-miterlimit="10"/>
<path d="M183.006 629.996C133.32 629.996 93.0427 589.705 93.0427 540C93.0427 490.296 133.32 450.004 183.006 450.004" stroke="#2DEE39" stroke-width="5" stroke-miterlimit="10"/>
<path d="M183.006 720.004C83.633 720.004 3.06708 639.421 3.06708 540C3.06708 440.579 83.6207 359.996 183.006 359.996" stroke="#2DEE39" stroke-width="5" stroke-miterlimit="10"/>
<path d="M183.006 720.004C232.693 720.004 272.97 760.296 272.97 810C272.97 859.705 232.693 899.996 183.006 899.996" stroke="#2DEE39" stroke-width="5" stroke-miterlimit="10"/>
<path d="M183.006 629.996C282.379 629.996 362.945 710.579 362.945 810C362.945 909.421 282.392 990.004 183.006 990.004" stroke="#2DEE39" stroke-width="5" stroke-miterlimit="10"/>
<path d="M93.0305 1080C93.0305 1030.3 133.307 990.004 182.994 990.004" stroke="#2DEE39" stroke-width="5" stroke-miterlimit="10"/>
<path d="M3.06708 1080C3.06708 980.591 83.6207 899.996 183.006 899.996" stroke="#2DEE39" stroke-width="5" stroke-miterlimit="10"/>
<path d="M183.006 89.9959C133.32 89.9959 93.0427 49.7046 93.0427 0" stroke="#2DEE39" stroke-width="5" stroke-miterlimit="10"/>
<path d="M183.006 180.004C83.6207 180.004 3.06708 99.4091 3.06708 0" stroke="#2DEE39" stroke-width="5" stroke-miterlimit="10"/>
</g>
<defs>
<clipPath id="clip0_16_158">
<rect width="366" height="1080" fill="white"/>
</clipPath>
</defs>
</svg>
