<svg width="471" height="465" viewBox="0 0 471 465" fill="none" xmlns="http://www.w3.org/2000/svg">
<circle cx="233.029" cy="235.108" r="203.478" stroke="#2DEE39" stroke-width="7"/>
<circle cx="233.032" cy="235.108" r="169.807" stroke="#2DEE39" stroke-width="7"/>
<path d="M263.442 32.2547C262.822 30.3862 258.465 25.4006 246.274 15.5468C240.613 10.9718 231.275 4.76346 225.425 1.27072C222.073 -0.730734 221.829 8.7632 213.712 17.0444C209.107 21.7431 203.69 25.0439 199.61 27.7057C197.484 29.0929 195.85 31.3064 193.822 32.8696C188.728 36.7959 176.799 26.64 169.105 23.1895C164.979 21.3394 161.12 20.3681 156.425 18.3354C151.918 16.3837 148.594 15.9834 146.252 15.6689C145.159 15.5221 144.219 15.974 143.585 16.9082C140.304 21.7447 140.144 30.0201 138.262 36.3014C136.249 43.0164 130.154 49.4179 125.591 55.5536C124.116 57.538 122.925 59.4736 121.211 60.8819C117.217 64.1651 112.296 58.8633 98.7338 52.9388C87.4975 48.0304 79.4252 46.9673 77.5521 47.1176C72.1218 47.5531 72.2238 55.7086 69.7263 61.0181C63.8264 73.5609 62.8347 82.9181 61.5813 87.946C60.1841 93.5502 59.6988 99.8184 58.9195 107.945C57.7645 119.988 58.45 128.953 56.5863 130.361C44.7854 139.279 23.1189 136.774 18.5558 139.436C16.64 140.553 16.509 143.966 16.8189 147.247C17.2815 152.147 19.9454 156.791 21.0439 162.425C22.9062 171.975 23.0814 180.264 24.64 188.395C25.7106 193.98 26.5178 199.042 28.5505 204.99C30.4332 210.499 31.2123 215.004 32.3108 219.238C33.7501 224.786 24.978 229.726 17.4761 237.063C12.7614 241.675 6.53782 251.583 2.58972 258.513C1.29382 260.787 1.17666 263.216 1.01705 265.09C0.654301 269.347 6.16226 273.836 9.76766 278.389C13.1397 282.648 16.4902 287.299 19.3164 292.158C21.7884 296.408 26.7994 304.481 30.5785 311.396C36.4562 322.151 40.2822 326.114 42.944 329.719C45.9778 333.829 51.2298 336.761 54.8352 338.644C58.762 340.694 58.4406 346.77 59.0697 351.929C60.0179 359.706 61.2573 365.229 62.6657 373.045C64.1561 381.317 65.9519 386.204 67.5152 390.744C69.0676 395.252 75.9419 395.293 81.2748 395.767C86.3296 396.216 97.4804 398.41 107.09 399.522C112.037 400.095 118.812 401.865 125.399 402.963C126.958 403.223 128.521 403.123 129.474 403.743C133.71 406.497 134.473 416.531 137.464 422.042C140.11 426.92 142.003 432.21 146.679 440.637C154.065 453.949 158.275 457.26 160.767 458.354C164.26 459.887 179.128 456.979 202.708 451.519C223.899 446.613 234.326 440.999 237.284 439.285C242.274 436.394 246.532 434.426 248.87 433.952C255.934 432.519 259.667 440.98 263.428 442.707C268.326 444.958 274.371 449.111 280.943 453.026C286.587 456.388 289.712 460.378 293.473 462.27C295.236 463.157 297.543 463.213 300.04 462.748C305.354 461.76 308.49 458.218 314.114 454.937C324.109 449.105 331.606 438.257 342.277 426.474C350.51 417.382 356.074 403.142 358.107 398.602C359.857 394.694 361.398 391.866 362.487 390.302C365.349 386.194 372.956 389.659 379.523 391.377C389.266 393.926 395.79 397.471 400.508 399.363C402.341 400.098 404.578 400.306 406.611 399.687C411.864 398.085 408.653 387.5 409.127 376.566C409.51 367.747 410.531 360.29 411.005 345.122C411.199 338.93 412.409 333.982 414.742 328.809C419.319 318.661 430.229 330.189 435.088 331.761C439.003 333.029 442.754 333.644 445.881 333.024C451.671 331.877 450.284 310.622 449.505 299.707C448.798 289.808 445.59 272.371 444.81 265.902C444.264 261.366 443.092 255.132 441.839 249.785C440.521 244.162 439.646 239.772 439.022 236.49C438.75 235.059 438.398 234.139 441.027 233.66C455.992 230.934 462.452 232.242 467.931 231.622C469.785 231.412 469.382 229.763 468.757 228.35C466.263 222.706 459.73 212.919 451.092 202.849C447.065 198.155 444.97 192.827 442.782 188.911C439.231 182.556 436.839 173.429 433.708 163.739C431.901 158.148 430.886 153.712 428.544 149.632C426.06 145.307 421.817 143.064 419.31 139.304C418.681 138.361 418.061 137.431 418.206 136.797C419.146 132.706 432.069 134.596 438.999 133.816C440.259 133.675 441.496 133.657 442.135 132.882C442.773 132.107 442.773 130.558 442.463 129.295C441.896 126.983 436.557 122.117 424.253 111.832C416.48 105.334 404.822 97.2083 397.212 91.9692C386.417 84.5369 381.444 82.0261 377.242 79.3784C361.552 69.4909 351.708 66.6844 351.384 65.9051C348.52 59.0151 367.304 63.2386 372.341 62.3044C376.449 61.5425 382.026 60.7411 386.579 59.4877C391.124 58.2366 394.87 56.9855 398.63 55.732C399.574 55.4175 400.503 55.1077 400.827 54.4833C401.543 53.1039 399.902 51.0422 397.724 48.8592C394.253 45.3803 381.218 40.7424 358.45 33.5597C345.754 29.5547 330.104 26.9968 321.194 25.4006C307.36 22.9225 295.458 22.8656 287.088 24.5791C283.168 26.302 280.351 28.1798 278.633 29.5835C277.844 30.3675 277.225 31.297 276.586 32.2547" stroke="#2DEE39" stroke-width="2" stroke-linecap="round"/>
<path d="M291.609 26.6197C290.369 25.3709 285.374 24.1222 281.14 23.0237C276.719 21.8767 272.849 25.9812 268.934 28.1783C264.701 30.5537 260.324 27.2488 258.292 27.2441C254.447 27.2352 254.071 35.6708 248.907 41.3089C242.71 48.0751 233.415 56.9652 229.185 60.4063C227.499 61.7781 226.833 64.4764 225.425 68.0584C221.582 77.8326 228.063 82.9354 231.659 89.1885C234.923 94.8641 239.95 96.3993 246.194 97.817C253.163 99.3996 260.906 97.0471 265.911 96.1035C270.964 95.1507 274.37 103.591 281.722 104.394C284.717 104.721 288.144 103.61 291.74 104.075C296.359 104.672 298.162 109.863 302.077 111.741C306.768 113.991 313.485 112.999 318.039 112.22C324.582 111.1 334.423 96.4744 340.418 91.5686C341.989 90.2826 344.178 90.1556 346.671 87.6721C356.009 78.3693 353.577 69.2273 354.971 62.655C355.517 60.0784 359.154 60.4204 360.435 59.8007C361.717 59.181 361.407 57.9416 360.318 56.6835C357.789 53.7622 345.849 49.191 324.325 41.6985C312.517 37.5883 298.463 34.2061 292.365 32.9104C286.266 31.6147 288.435 32.854 293.425 34.8868C315.609 43.9228 320.705 43.8299 321.184 44.2993C322.837 45.9201 305.495 42.5999 282.083 39.7832C258.205 36.9103 244.673 39.1353 244.194 40.3794C242.976 43.5445 254.926 45.3885 271.136 46.7968C280.815 47.6377 293.543 47.2757 300.707 47.1207C307.871 46.9658 309.11 46.656 302.467 46.0316C263.887 42.4053 257.817 44.7688 257.029 45.3931C255.841 46.3334 264.333 46.3367 269.671 46.3367C278.711 46.3367 251.273 50.0736 245.931 53.8339C244.837 54.6039 244.363 55.707 244.508 56.3408C245.424 60.3286 258.991 56.3643 263.601 54.0123C270.706 50.3873 250.306 55.4066 249.363 55.7258C244.284 57.4441 255.611 47.285 255.775 46.6513C258.766 35.1157 240.917 70.1099 240.283 71.2131C236.602 77.6209 250.898 57.0215 254.667 48.7122C255.957 45.8688 255.93 42.9097 255.311 40.7174C252.262 29.9326 238.41 69.1522 238.866 73.8655C239.097 76.2643 244.025 73.8843 246.677 72.3257C254.59 67.6758 259.667 55.4629 260.005 45.5856C260.068 43.7337 258.146 43.2196 256.578 42.9003C253.205 42.2137 249.067 43.5106 245.006 45.6936C236.216 50.4188 234.035 63.8192 233.861 72.2835C233.821 74.2312 235.255 75.7245 236.354 76.8325C238.401 78.8967 242.757 79.1985 248.222 78.4239C253.82 77.6303 257.479 72.6449 260.137 68.8987C262.523 65.5338 262.812 61.6879 263.282 58.566C263.747 55.4748 262.822 52.9185 261.263 51.3552C259.587 49.6741 256.259 50.0924 253.137 50.7121C244.849 52.3572 239.067 69.0959 237.307 79.7947C236.999 81.6678 237.772 83.2358 239.016 84.3437C241.872 86.8878 246.213 86.3999 249.489 85.1559C258.924 81.5738 263.423 69.847 265.005 61.3921C265.811 57.0856 263.451 53.5476 260.958 51.205C257.861 48.2947 251.893 48.5244 246.114 50.2332C240.16 51.9939 237.791 59.1434 235.758 64.2934C233.713 69.4744 234.645 75.4147 235.889 80.5693C236.486 83.0421 238.373 84.7944 240.41 86.0619C244.566 88.6474 249.959 88.5876 255.109 88.1228C260.721 87.6163 266.23 83.602 271.385 78.6117C276.793 73.376 277.835 66.082 278.149 60.6175C278.446 55.4624 275.356 50.4304 270.366 46.0551C265.122 41.4571 257.526 41.6422 251.438 42.2619C248.399 42.5711 245.659 44.1209 243.138 47.393C237.192 55.1106 235.903 65.3872 235.899 73.1942C235.894 80.4868 240.57 86.3718 245.72 90.5921C250.421 94.4448 257.461 94.221 264.484 93.6013C272.019 92.9364 278.126 88.6064 282.811 84.3954C287.685 80.0143 289.412 72.9735 290.351 66.4153C291.193 60.5281 289.43 55.4348 286.623 51.374C283.861 47.3792 278.492 45.7171 273.028 45.2429C267.782 44.7877 263.15 49.7544 259.399 55.0592C255.684 60.3133 255.62 67.8941 255.926 75.3865C256.081 79.2076 258.09 82.879 260.747 85.8788C266.189 92.0225 275.29 93.2821 283.567 92.5075C291.239 91.7895 296.904 86.1089 301.434 80.6491C306.118 75.005 306.631 67.6499 306.012 61.4062C305.695 58.2161 304.152 55.1625 302.275 52.7917C294.15 42.5341 277.253 46.0175 269.756 48.1958C262.604 50.2736 258.766 61.2935 256.259 73.4759C255.107 79.0712 256.231 83.7992 257.634 87.2778C260.135 93.4749 268.089 96.7091 277.61 98.9015C287.195 101.109 297.505 96.4368 306.411 91.2869C313.917 86.946 317.26 79.5459 319.292 72.9876C321.081 67.2182 319.785 61.6973 317.602 57.322C316.587 55.2877 314.8 54.186 313.227 53.5476C311.654 52.9091 310.105 52.9091 308.532 53.3739C305.254 54.3428 302.265 58.5144 299.453 64.9083C296.136 72.4512 296.613 81.3486 297.547 88.8458C298.345 95.2442 301.608 99.216 305.195 101.404C309.276 103.893 315.363 102.99 321.297 101.122C327.169 99.273 331.024 93.6201 334.46 88.4702C337.87 83.3599 338.554 77.039 337.934 71.26C337.641 68.5245 336.075 66.4106 334.352 64.9834C330.966 62.1784 324.508 62.2982 317.635 63.5375C310.993 64.7354 307.589 73.2177 304.617 80.8604C301.247 89.5294 303.805 97.019 306.298 100.455C309.043 104.24 314.434 104.549 319.114 104.084C324.568 103.543 330.386 98.9437 335.855 93.4793C340.436 88.9022 341.681 83.602 341.995 79.5412C342.262 76.0969 340.131 72.9548 337.014 70.1427C333.393 66.8759 326.696 67.3025 320.292 68.7015C314.218 70.0285 310.096 76.0438 306.19 81.5035C298.513 92.2341 301.308 100.775 302.552 103.901C303.134 105.364 305.035 105.788 306.918 106.108C315.992 107.646 328.47 93.3572 336.033 80.8087C339.476 75.0965 336.995 67.6499 334.817 62.0259C332.665 56.4679 324.508 55.1061 316.396 54.4771C307.052 53.7525 296.979 59.7537 288.074 68.3353C279.681 76.4228 277.844 87.2919 279.384 95.5684C280.206 99.9844 286.501 102.915 291.843 104.051C302.525 106.323 311.917 100.192 318.476 94.4229C325.552 88.1975 327.907 79.5459 328.536 72.9876C328.837 69.852 327.926 67.049 326.832 64.8379C324.794 60.7182 318.875 58.5519 310.917 57.2985C302.139 55.9157 293.214 59.4627 285.407 63.8286C277.452 68.2774 274.089 76.0344 273.46 82.1279C273.184 84.799 274.07 86.6722 275.628 87.9397C279.086 90.7516 286.557 90.1556 295.299 88.4467C304.684 86.6121 311.298 78.607 315.832 71.7389C317.968 68.5047 318.199 64.8708 318.053 62.0306C317.907 59.1904 316.978 57.0215 314.795 55.1296C309.834 50.8298 300.115 49.7825 288.722 50.5524C276.517 51.3771 266.305 61.0025 258.489 70.0535C251.456 78.1973 252.794 88.8599 254.973 95.8923C255.974 99.1254 259.01 100.756 262.765 101.868C271.23 104.376 282.163 102.061 293.247 97.3898C299.08 94.9315 304.021 89.6204 307.354 83.1982C310.687 76.7761 311.927 68.7203 310.551 63.0211C309.176 57.322 305.148 54.2236 300.749 52.4725C292.129 49.041 281.027 51.3317 269.474 55.3784C257.147 59.6961 250.325 71.6403 246.1 80.2313C244.248 83.9974 244.663 87.2731 245.128 89.4889C245.593 91.7047 246.522 92.9441 248.241 93.7375C252.18 95.5567 259.949 93.6107 269.474 89.7143C278.892 85.8617 284.698 76.7386 288.764 67.9973C290.738 63.7533 290.97 59.2561 290.67 55.6272C290.369 51.9984 289.13 49.2098 287.097 47.3085C285.064 45.4072 282.276 44.4777 278.361 44.6185C269.387 44.9413 260.043 50.6839 252.231 57.7069C245.207 64.0215 243.105 72.8984 242.786 79.9309C242.649 82.9472 244.325 84.7944 246.203 85.907C250.146 88.2431 257.451 86.7192 266.038 83.7616C275.242 80.591 280.943 71.7248 284.853 64.3872C286.684 60.9522 286.595 57.3595 286.135 54.8292C285.675 52.2988 284.435 50.7496 282.713 49.7966C279.132 47.8162 272.868 49.1441 265.066 52.1016C255.846 55.5964 249.696 65.6876 246.25 75.6823C244.677 80.2441 245.903 84.4376 247.926 86.8224C251.942 91.5556 260.587 89.8457 267.925 87.9773C275.371 86.0811 281.872 78.9262 287.501 71.2741C291.9 65.2938 291.299 59.1904 289.745 55.4395C288.975 53.5801 286.332 52.9279 283.666 52.604C277.943 51.9088 270.99 55.078 263.963 60.8429C255.841 67.5052 254.681 78.222 254.677 85.2498C254.675 88.5734 255.911 91.348 257.475 93.4042C260.488 97.3677 267.469 97.9767 274.657 97.357C280.279 96.8722 285.318 89.5734 290.167 80.2078C294.577 71.692 290.998 62.6456 287.412 56.3971C285.672 53.3657 282.896 51.3881 279.76 50.1159C276.624 48.8436 272.906 48.5338 269.596 49.3037C263.128 50.8083 259.076 57.2562 256.418 64.2793C253.753 71.3254 254.672 79.161 257.005 86.1887C259.394 93.3826 268.718 96.7091 277.614 98.9015C286.559 101.106 296.256 96.4368 304.537 90.2025C308.712 87.0595 310.65 81.4894 311.307 77.2315C311.964 72.9735 310.725 69.5653 308.537 67.4997C304.226 63.4293 296.96 64.7957 291.491 66.6641C286.758 68.2813 285.356 74.7856 284.726 80.7195C284.428 83.5392 285.337 86.0337 286.74 88.0853C289.605 92.2715 295.646 93.9018 302.045 94.8407C308.69 95.8157 315.983 93.3009 322.081 89.7096C324.618 88.2157 325.391 86.4281 325.869 84.7005C326.348 82.9729 326.348 81.1139 325.574 79.3816C323.932 75.7109 317.626 72.9548 308.425 70.4526C297.385 67.4506 283.853 69.4902 271.666 71.6685C266.161 72.6524 262.578 75.7058 260.662 77.6024C258.747 79.499 258.747 80.7383 259.676 81.8415C261.9 84.4805 270.267 85.7615 282.75 87.1698C308.619 90.0885 320.076 82.6537 321.644 80.3111C329.965 67.8806 277.553 72.936 282.313 74.4899C289.586 76.864 307.833 77.9028 309.035 78.7103C310.237 79.5177 294.125 78.8981 289.078 77.4944C285.36 76.4602 291.045 70.7577 290.022 68.8846C287.501 64.2698 311.927 67.0115 312.025 66.5326C312.124 66.0538 295.083 66.0538 285.374 66.3636C275.666 66.6735 273.807 67.2932 284.313 67.6124C294.82 67.9316 317.748 67.9316 313.912 67.3119C310.077 66.6923 278.783 65.4529 274.126 63.4202C269.469 61.3874 292.397 58.5989 293.829 56.8525C295.261 55.1061 274.502 54.4865 270.779 54.1672C260.591 53.2936 296.294 54.1578 296.463 55.4019C297.012 59.4464 279.825 62.5798 261.535 68.2039C254.02 70.5147 250.372 72.5886 248.147 74.011C245.921 75.4335 245.302 76.363 247.306 77.4615C249.311 78.56 253.958 79.7994 264.409 80.7477C274.859 81.696 290.97 82.3157 298.341 83.0997C305.711 83.8837 303.852 84.8132 297.627 86.0666C291.402 87.3201 280.868 88.8693 274.821 89.9772C268.774 91.0851 267.535 91.7048 276.037 92.024C302.802 93.029 320.414 92.3432 316.832 92.653C300.091 94.1012 279.769 96.0894 272.408 97.6527C270.268 98.1072 271.554 98.5963 281.952 98.4461C292.35 98.2959 311.87 97.6762 320.996 97.0471C330.123 96.4181 328.264 95.7984 318.321 93.93C308.378 92.0615 290.407 88.9631 280.684 87.2121C270.962 85.461 270.033 85.1512 270.793 84.217C273.37 81.0516 282.163 78.2784 289.064 74.6871C290.998 73.6806 287.29 71.4056 274.23 68.5935C261.169 65.7815 238.241 61.7536 227.359 59.5237C216.477 57.2938 218.336 56.984 233.237 56.6694C248.137 56.3549 276.023 56.045 288.994 55.8854C301.888 55.7268 319.4 53.5476 324.311 51.665C326.251 50.9211 309.26 47.6043 297.144 44.7922C295.884 44.5 310.744 42.5999 313.114 42.1211C319.615 40.8081 291.355 42.2619 281.816 43.3557C276.894 43.9201 292.379 45.0786 316.645 46.1724C324.187 46.5124 322.011 46.9564 317.795 47.116C307.389 47.51 299.449 47.8953 300.664 48.8342C316.512 61.0715 327.897 48.2146 328.076 47.9047C330.962 42.8924 315.419 46.3367 318.79 46.6466C324.623 47.1828 338.892 47.5761 344.84 48.0503C353.016 48.702 318.227 50.7121 316.344 51.8059C315.493 52.3007 324.095 53.2189 330.85 54.1532C335.762 54.8324 319.166 57.2844 317.748 58.5332C315.985 60.0863 333.428 60.7302 347.239 59.4955C366.452 57.778 325.109 43.858 320.889 37.4406C319.899 35.9366 318.856 35.0886 318.997 34.9196C319.137 34.7506 320.377 35.3703 333.564 38.4781C346.751 41.5859 371.848 47.163 382.298 50.036C392.748 52.9091 387.79 52.9091 381.209 52.2894C366.518 50.9063 352.384 49.1535 343.465 49.7731C340.377 49.9877 340.432 51.6322 352.98 54.7494C365.529 57.8665 390.626 62.824 403.09 65.5327C415.554 68.2415 414.624 68.5513 400.822 68.7109C387.02 68.8705 360.374 68.8705 345.253 69.3353C330.132 69.8 327.343 70.7296 327.301 71.983C327.259 73.2364 330.048 74.7856 348.06 76.978C366.073 79.1703 399.226 81.9589 402.052 83.0856C404.878 84.2123 376.373 83.5926 360.449 83.7381C344.525 83.8837 342.047 84.8132 350.53 85.4469C359.013 86.0807 378.533 86.3905 389.518 86.2403C400.503 86.0901 402.362 85.4704 403.165 84.6864C408.82 79.1635 382.101 71.3868 375.819 69.0348C372.527 67.8021 368.618 67.9316 365.956 68.7062C364.885 69.0179 365.463 71.03 367.017 72.6027C370.776 76.4071 384.767 80.7289 402.742 86.2028C410.13 88.4523 414.211 88.888 415.512 89.2073C416.812 89.5265 415.263 89.5265 399.592 87.3576C383.922 85.1887 354.177 80.851 336.376 78.6164C318.574 76.3818 313.617 76.3818 312.302 77.0015C310.988 77.6211 313.466 78.8605 339.531 82.2875C365.595 85.7145 415.169 91.2916 420.413 90.7565C425.656 90.2213 385.068 83.4048 362.144 79.8933C339.221 76.3818 335.193 76.3818 351.553 77.931C367.914 79.4802 404.785 82.5786 407.202 82.0058C409.62 81.4331 376.467 77.0954 357.374 74.8608C338.282 72.6262 334.254 72.6262 333.883 73.0909C333.512 73.5557 336.92 74.4852 360.52 76.3583C384.119 78.2314 427.807 81.02 425.06 79.668C422.314 78.3159 371.81 72.7388 368.256 71.415C364.703 70.0911 409.629 73.1895 429.985 74.7856C450.34 76.3818 444.763 76.3818 427.173 74.5227C409.582 72.6637 380.148 68.9456 364.055 67.0303C347.962 65.1149 346.103 65.1149 363.89 66.1993C381.678 67.2838 419.169 69.4526 412.146 65.9224C405.123 62.3921 352.45 53.0969 322.837 48.1535C293.224 43.2102 288.266 42.9003 308.176 44.7547C328.085 46.609 373.012 50.6369 373.848 50.3881C374.683 50.1393 330.066 45.4917 306.617 43.2524C283.168 41.0131 282.238 41.323 312.898 44.2712C343.558 47.2193 405.836 52.7964 400.738 51.0219C395.64 49.2474 321.278 39.9522 281.576 35.1638C241.875 30.3753 239.086 30.3753 238.734 30.3753C238.382 30.3753 240.551 30.3753 272.962 33.1639C305.373 35.9524 367.961 41.5295 374.021 41.9239C380.082 42.3182 327.719 37.3608 321.968 36.0463C316.217 34.7319 358.665 37.2106 378.364 38.4875C398.062 39.7644 393.724 39.7644 367.942 37.5955C342.159 35.4266 295.064 31.0889 267.239 29.0092C239.415 26.9295 232.289 27.2394 241.476 28.1736C250.663 29.1078 276.38 30.657 288.388 31.9198C300.397 33.1827 297.918 34.1122 295.364 35.0699" stroke="#2DEE39" stroke-width="2" stroke-linecap="round"/>
<path d="M275.649 27.5609C279.677 26.9412 283.705 26.3215 303.441 26.7769C323.176 27.2322 358.498 28.7814 376.384 30.0443C394.27 31.3071 393.651 32.2366 391.937 32.8704C390.224 33.5041 387.435 33.814 384.562 34.1332" stroke="#2DEE39" stroke-width="2" stroke-linecap="round"/>
<path d="M246.54 22.8661C249.329 22.8661 252.117 22.8661 283.299 26.5841C314.48 30.3022 373.969 37.7384 403.066 41.724C432.162 45.7097 429.064 46.0195 424.524 46.0242C419.985 46.0289 414.098 45.7191 410.136 45.4045C406.173 45.09 404.314 44.7802 402.399 44.4609" stroke="#2DEE39" stroke-width="2" stroke-linecap="round"/>
<path d="M308.511 35.0705C309.131 35.0705 309.751 35.0705 333.153 38.014C356.555 40.9574 402.721 46.8444 427.743 49.877C452.765 52.9097 455.244 52.9097 454.042 52.9097C452.84 52.9097 447.883 52.9097 442.775 52.9097" stroke="#2DEE39" stroke-width="2" stroke-linecap="round"/>
<path d="M305.694 40.706C307.243 41.0158 308.792 41.3257 320.434 44.1189C332.077 46.9122 353.766 52.1794 381.36 56.9068C408.955 61.6342 441.798 65.6621 457.168 67.7371C472.537 69.8121 469.439 69.8121 466.247 69.8121" stroke="#2DEE39" stroke-width="2" stroke-linecap="round"/>
<path d="M340.431 54.7892C342.29 55.7187 344.149 56.6482 361.529 60.0705C378.908 63.4928 411.751 69.3798 445.589 75.4451" stroke="#2DEE39" stroke-width="2" stroke-linecap="round"/>
<path d="M334.797 61.361C334.487 61.361 334.177 61.361 335.102 62.2905C336.027 63.22 338.196 65.0791 356.664 69.2901C375.132 73.501 409.834 80.0077 447.466 86.7115" stroke="#2DEE39" stroke-width="2" stroke-linecap="round"/>
<path d="M361.089 74.5079C363.568 76.9866 368.253 79.193 387.205 82.4604C402.749 84.7983 430.324 88.5164 445.305 90.4317C460.285 92.3471 461.834 92.3471 461.552 92.3471" stroke="#2DEE39" stroke-width="2" stroke-linecap="round"/>
<path d="M347.003 77.3225C348.243 78.252 349.482 79.1816 363.753 83.5334C378.025 87.8852 405.291 95.6312 422.28 100.086C445.157 105.471 452.771 106.429 452.33 105.499C450.339 104.57 444.762 102.711 439.016 100.795" stroke="#2DEE39" stroke-width="2" stroke-linecap="round"/>
<path d="M353.578 79.2013C353.888 79.5111 354.198 79.821 370.469 85.8676C386.741 91.9141 418.964 103.688 433.24 108.669C447.516 113.65 442.868 111.481 440.009 110.209C437.151 108.937 436.221 108.627 435.263 108.307" stroke="#2DEE39" stroke-width="2" stroke-linecap="round"/>
<path d="M327.288 75.4442C328.527 76.0638 329.767 76.6835 348.686 84.9037C367.605 93.1238 404.166 108.926 424.239 117.376C444.313 125.826 446.792 126.446 443.731 124.596C440.67 122.746 431.995 118.409 422.117 113" stroke="#2DEE39" stroke-width="2" stroke-linecap="round"/>
<path d="M354.517 85.7731C356.376 86.3928 358.235 87.0125 373.756 94.3031C389.276 101.594 418.401 115.536 433.869 122.874C449.338 130.212 450.267 130.521 446.873 128.357C443.479 126.193 435.733 121.545 427.752 116.757" stroke="#2DEE39" stroke-width="2" stroke-linecap="round"/>
<path d="M347.003 82.0188C348.552 82.6385 350.102 83.2582 368.406 90.239C386.71 97.2198 421.721 110.543 438.209 116.167C454.696 121.791 451.597 119.312 445.818 115.712C440.04 112.111 431.674 107.463 423.055 102.675" stroke="#2DEE39" stroke-width="2" stroke-linecap="round"/>
<path d="M384.559 73.5654C387.657 74.4949 390.756 75.4244 403.971 80.0861C417.186 84.7478 440.424 93.1134 453.015 97.7329C465.605 102.352 466.845 102.972 461.906 101.277C456.967 99.5825 445.813 95.5546 434.321 91.4046" stroke="#2DEE39" stroke-width="2" stroke-linecap="round"/>
<path d="M339.49 54.7882C341.349 54.7882 343.546 54.7882 345.579 54.0136C346.615 53.6187 346.682 51.6898 346.377 50.4269C345.786 47.9812 340.777 45.7277 334.218 43.3804C328.577 41.3613 322.618 42.8922 317.463 44.1363C312.699 45.2861 310.084 50.3847 308.206 55.375C307.187 58.0824 307.567 61.6046 308.497 64.135C310.201 68.7735 315.68 70.4304 321.139 71.5242C327.451 72.7887 333.829 71.6979 338.828 69.36C343.341 67.2499 344.804 62.9379 345.743 60.4404C346.2 59.2254 346.063 57.9429 345.598 56.6848C344.607 54.0016 341.697 52.2907 338.575 51.3518C335.57 50.448 329.829 52.5817 323.106 56.1684C317.822 58.9876 317.586 65.0974 317.426 68.6887C317.349 70.4258 318.196 71.9702 318.98 72.9232C322.35 77.0198 334.739 71.0876 343.997 64.8298C348.659 61.6782 350.748 56.6848 352.156 53.2484C352.781 51.723 352.635 50.4316 351.55 49.4833C348.832 47.106 341.415 48.8261 332.514 52.5677C323.849 56.2101 315.755 65.6889 307.934 74.1344C305.027 77.2732 304.45 78.2421 306.765 78.2562C324.205 78.3623 337.556 66.4118 343.546 58.8818C344.606 57.5501 344.185 56.0651 343.565 55.1168C342.235 53.0809 337.641 52.6005 330.937 52.1311C322.084 51.5111 305.492 54.1403 285.334 58.9757C270.367 62.5659 264.387 69.4821 263.289 72.6039C262.763 74.096 263.739 75.7258 266.382 76.8337C273.292 79.7303 283.729 79.1998 295.272 78.4252C320.654 76.7221 331.941 65.7734 337.575 60.3042C339.762 58.1813 339.49 56.3843 338.406 54.5018C335.812 49.9995 327.651 46.9765 316.107 45.0986C302.863 42.9443 289.784 46.6291 279.785 51.7743C275.045 54.2132 272.264 58.4687 270.513 61.7783C268.762 65.088 268.453 67.8765 269.067 70.0877C269.682 72.2988 271.232 73.848 275.748 74.801C287.508 77.2825 298.77 75.1437 304.863 72.4913C309.837 70.3263 311.943 66.3837 312.727 63.4167C313.091 62.0368 312.581 60.7596 311.802 59.8113C310.179 57.8365 306.647 57.6049 302.436 58.0696C290.539 59.3827 285.672 74.1578 283.949 80.5612C283.161 83.4909 283.775 86.035 285.949 87.6218C288.123 89.2085 292.151 89.8282 296.239 89.063C304.723 87.4753 310.985 81.4156 315.36 76.2657C319.437 71.4673 319.773 65.764 319.153 61.7032C318.853 59.7352 317.294 58.2621 315.726 57.4641C314.159 56.666 312.299 56.666 309.638 58.3701C302.954 62.6491 299.127 71.0219 297.718 78.674C296.498 85.3023 297.549 90.138 298.638 92.7951C299.152 94.0485 300.657 94.5227 301.915 94.842C304.356 95.4612 307.858 93.3021 311.609 89.7108C317.885 83.7021 316.956 71.4256 314.778 62.952C314.32 61.1702 312.6 60.4404 310.877 60.7361C309.154 61.0319 306.985 62.5811 305.713 64.4636C303.278 68.0672 303.812 74.4677 304.431 81.6503C305.018 88.4462 310.666 94.1941 316.91 98.729C322.312 102.653 329.754 101.734 336.002 100.649C338.998 100.129 341.011 97.3958 342.438 95.0391C343.866 92.6825 344.485 90.2038 344.65 87.6875C344.975 82.701 338.608 74.8714 325.2 65.0316C317.89 59.6666 307.455 56.7411 298.319 54.5159C281.389 50.3921 266.321 52.8916 255.223 57.4124C250.308 59.4145 248.153 63.4824 246.721 66.6325C245.29 69.7825 244.98 72.5711 246.06 75.247C248.403 81.0555 257.439 84.5046 269.138 86.8519C282.757 89.5844 297.793 86.1007 311.379 81.7395C318.087 79.5862 323.416 74.8996 326.754 71.2754C330.092 67.6512 331.021 64.5528 330.726 61.5624C330.43 58.572 328.881 55.7834 325.914 53.4174C319.316 48.156 307.323 46.6572 293.587 46.1831C279.817 45.7078 267.561 51.624 258.186 59.1118C249.494 66.0534 248.416 76.0356 249.036 81.8193C249.297 84.2603 250.895 85.4341 253.392 86.5373C259.374 89.1797 269.326 89.5277 280.879 88.5982C292.126 87.6933 302.197 80.4861 310.483 74.0827C316.284 69.5995 317.266 63.2665 316.961 57.957C316.812 55.3664 314.797 53.2671 312.605 51.84C308.092 48.9021 301.033 49.1547 292.611 51.3236C280.828 54.3579 274.415 67.2569 271.438 76.7821C270.055 81.2096 271.25 85.3778 272.654 88.3823C274.058 91.3868 276.227 93.2458 279.513 94.5133C286.841 97.3398 295.634 96.4193 303.286 94.0861C311.025 91.7264 315.06 83.9225 318.032 77.6834C319.59 74.4103 319.454 70.205 318.219 66.271C315.631 58.0224 306.985 51.9996 297.315 47.3098C286.632 42.1293 273.203 44.141 261.955 46.4741C256.732 47.5575 253.186 50.9762 250.496 54.1168C247.806 57.2575 246.257 60.6657 246.078 65.365C245.9 70.0642 247.139 75.9511 249.792 80.0682C254.76 87.7794 265.889 89.2085 276.504 89.8376C287.117 90.4666 296.573 86.7298 303.45 82.8286C306.5 81.0989 307.849 78.6176 308.647 76.261C309.445 73.9043 309.445 71.4256 308.516 69.0643C306.567 64.1143 299.474 60.7502 289.958 58.403C279.187 55.7461 268.49 59.7738 260.833 64.4542C254.324 68.4334 252.491 76.3455 252.327 83.0634C252.253 86.0966 254.331 88.232 256.834 89.8141C262.262 93.2461 273.382 92.3539 286.813 89.3963C299.173 86.6745 305.361 78.289 307.863 72.3598C309.139 69.336 309.126 65.8109 308.511 62.8158C307.896 59.8207 306.347 57.342 303.07 54.9806C295.445 49.4861 284.461 47.906 273.537 48.521C261.604 49.1927 253.449 57.2575 249.383 64.7453C245.088 72.6562 247.158 81.3592 249.801 87.2931C252.893 94.2346 264.321 96.0907 275.715 97.3441C298.779 99.8815 312.544 86.7392 317.548 80.6551C319.966 77.7149 320.074 73.6414 319.153 69.7121C318.233 65.7828 315.755 61.7549 310.45 57.9758C305.145 54.1967 297.089 50.7884 285.813 48.7228C274.537 46.6572 260.284 46.0375 249.379 46.9577C238.473 47.8778 231.347 50.3565 225.507 54.422C219.667 58.4875 215.329 64.0646 213.095 69.2614C210.86 74.4583 210.86 79.1059 212.719 83.2042C216.582 91.7206 227.084 95.7715 238.933 98.2737C245.74 99.7111 254.5 99.5365 262.997 98.3018C279.855 95.8523 290.949 88.617 295.798 83.1526C297.921 80.7607 297.859 77.998 287.329 73.1579C276.799 68.3178 255.42 61.1915 243.013 62.3229C230.605 63.4543 227.817 73.0593 228.084 78.9369C228.352 84.8144 231.76 86.6735 236.459 88.0959C246.838 91.2377 261.476 90.1662 275.236 87.2039C280.772 86.0122 282.799 83.3122 281.438 79.8711C280.076 76.43 275.119 71.7824 269.312 69.0783C263.504 66.3743 256.998 65.7546 252.252 68.8436C247.505 71.9326 244.717 78.7491 252.111 80.8663C259.505 82.9836 277.166 80.195 283.475 76.1248C289.784 72.0547 284.207 66.7874 277.771 62.8346C264.981 54.9792 250.05 54.4689 238.638 57.8866C233.483 59.4301 231.873 65.6419 231.995 70.5196C232.117 75.3972 234.596 80.0448 237.731 83.6783C243.732 90.6307 256.472 93.5838 270.692 95.3067C280.811 96.5328 287.512 93.612 291.733 90.1803C293.723 88.5623 294.404 86.1289 294.418 83.4624C294.449 77.6254 289.756 72.0265 282.278 66.8766C272.019 59.8116 257.251 57.6143 244.285 56.8256C238.454 56.4709 234.107 58.2058 231.253 59.9287C228.399 61.6516 227.159 63.8205 226.366 66.1771C224.784 70.8775 225.873 76.045 228.211 80.4203C231.478 83.5563 235.563 85.4529 240.088 86.3918C242.445 86.711 244.923 86.711 247.477 86.711" stroke="#2DEE39" stroke-width="2" stroke-linecap="round"/>
<path d="M311.326 43.5228C311.016 43.5228 310.706 43.5228 310.392 44.1424C310.077 44.7621 309.767 46.0015 310.227 46.9498C310.688 47.8981 311.927 48.5177 313.185 48.6821C314.443 48.8464 315.683 48.5365 316.631 47.7572C317.579 46.9779 318.199 45.7386 318.363 44.6354C318.527 43.5321 318.218 42.6026 317.128 42.1238C316.039 41.6449 314.18 41.6449 312.913 42.2646C310.533 43.4281 310.077 46.3301 310.073 48.0483C310.07 48.8939 311.307 49.4567 312.87 49.7759C314.434 50.0951 316.603 50.0951 318.03 49.4754C320.566 48.3742 321.025 45.41 321.03 43.6918C321.032 42.8461 319.795 42.2834 318.696 42.5839C317.598 42.8843 316.359 44.1237 315.565 45.5367C314.772 46.9498 314.462 48.499 314.457 49.7618C314.453 51.0246 314.762 51.9541 315.697 52.2781C316.631 52.602 318.18 52.2922 319.288 50.8932C320.396 49.4942 321.016 47.0155 321.025 45.1189C321.034 43.2223 320.415 41.983 319.631 41.1896C318.198 39.74 315.1 39.7671 311.974 40.3868C310.59 40.6611 310.087 42.2458 309.767 43.6589C309.448 45.072 309.448 46.6212 310.378 47.7291C312.486 50.2421 316.631 50.0951 319.598 49.9402C322.292 49.7995 324.771 48.2267 326.804 46.3536C327.71 45.5182 327.907 44.4804 327.912 43.3819C327.916 42.2834 327.607 41.044 326.982 40.0957C325.768 38.252 320.753 37.8893 314.345 38.1992C310.01 38.4088 307.27 41.0065 305.237 43.3491C304.347 44.3754 304.134 45.3818 304.594 46.1705C307.304 50.8168 317.542 48.5365 323.982 46.039C325.336 45.514 325.71 43.8608 325.874 42.7576C326.039 41.6543 325.729 40.7248 324.795 40.0911C319.016 36.1707 307.307 40.0676 299.768 43.5087C298.33 44.1648 297.881 45.3818 298.491 46.4803C303.065 54.7133 321.898 51.9729 331.954 48.391C333.774 47.7425 334.16 46.3583 334.17 45.4147C334.179 44.4711 333.559 43.5415 331.846 42.5979C319.967 36.0565 305.082 40.3868 303.045 42.1003C302.128 42.8713 303.176 44.7433 305.819 45.8512C319.421 51.553 326.959 47.9075 328.841 46.6634C329.669 46.1165 328.245 44.18 326.837 43.227C320.609 39.0127 312.913 41.9548 309.472 42.889C308.104 43.2603 307.89 44.4429 308.969 45.3865C311.997 48.0327 319.419 48.2173 325.527 47.7525C327.352 47.6137 326.367 46.3583 323.565 45.5696C316.266 43.5157 306.988 43.5228 301.345 43.8326C300.265 43.8919 316.208 45.7104 333.902 45.87C337.126 45.8991 324.264 44.1518 314.499 43.8373C301.339 43.4134 342.291 44.7715 338.601 44.9311C333.055 45.171 320.039 44.1612 315.039 44.1518C310.04 44.1424 313.448 44.7621 314.739 44.9264C316.03 45.0907 315.1 44.7809 314.143 44.4617" stroke="#120F16" stroke-width="2" stroke-linecap="round"/>
<path d="M326.347 34.1342C315.184 34.1342 288.228 35.3735 284.556 37.1011C270.781 43.5835 314.742 39.1386 320.047 39.608C325.951 40.1305 310.264 39.7676 290.922 39.7676C272.773 39.7676 331.014 39.4578 336.788 38.9883C339.768 38.746 342.872 38.8287 341.989 38.8287C336.149 38.8287 331.971 38.5189 322.38 37.7396C289.95 35.1045 271.224 36.012 278.721 36.1669C282.19 36.3218 284.979 36.6317 298.499 37.1011C312.019 37.5706 336.187 38.1903 358.27 38.8287" stroke="#120F16" stroke-width="2" stroke-linecap="round"/>
<path d="M237.152 48.2184C239.011 48.2184 242.447 48.2184 246.048 47.7536C247.252 47.5982 246.86 46.3594 245.926 45.7256C243.727 44.2342 240.297 44.4628 238.569 44.3079C234.62 43.9537 251.179 42.2845 258.413 41.3362C259.702 41.1672 260.606 40.4067 259.225 40.0875C257.845 39.7682 254.127 39.7682 251.902 40.233C249.677 40.6978 249.057 41.6273 249.203 42.416C250.404 48.9295 264.361 48.5282 267.643 49.1526C270.033 49.6075 262.277 50.0962 251.766 50.561C249.874 50.6446 255.197 51.9553 257.136 52.589C259.075 53.2228 257.526 53.5326 255.953 53.5373C254.381 53.542 252.831 53.2322 250.639 53.0726C248.447 52.9129 245.658 52.9129 251.348 54.4621C257.038 56.0113 271.29 59.1097 277.393 60.396C283.496 61.6823 281.017 61.0627 269.516 59.0393C237.597 53.4241 219.904 50.4061 227.547 51.4952C236.863 52.8229 243.086 55.1006 242.485 55.5701C237.126 59.7562 227.791 55.4198 227.284 55.5701C217.825 58.3726 246.522 58.5464 248.254 58.7013C253.8 59.1973 243.386 60.4242 231.382 60.5791C229.783 60.5998 243.818 61.0439 243.982 60.8937C244.147 60.7434 233.302 60.1238 226.786 59.6496C220.27 59.1755 218.411 58.8656 225.664 58.3962C249.314 56.8654 267.807 56.3587 263.183 54.9598C243.723 49.0724 225.913 50.0962 228.194 50.0962C233.265 50.0962 246.278 50.0962 245.855 50.2511C232.07 55.3057 214.327 51.345 211.815 52.2792C209.971 52.965 221.125 56.0301 228.814 58.2178C232.203 59.1818 213.134 60.4242 204.492 60.889C203.744 60.9292 211.031 62.2832 210.52 62.917C210.008 63.5508 201.642 63.8606 201.051 64.0202C200.459 64.1798 207.895 64.1798 215.557 64.1798" stroke="#120F16" stroke-width="2" stroke-linecap="round"/>
<path d="M215.776 57.0485L213.771 58.051" stroke="#2DEE39" stroke-width="2" stroke-linecap="round"/>
<path d="M205.755 60.0565C204.763 60.3873 203.77 60.718 191.187 64.8572C178.605 68.9964 154.461 76.934 147.646 78.0464C141.17 79.1035 167.299 65.7491 163.551 69.0364C157.005 74.7775 137.644 84.2302 123.968 91.3359C110.293 98.4417 102.025 101.749 109.837 96.5074C117.649 91.2658 141.793 77.3749 153.569 70.8805C165.345 64.3861 164.022 65.7091 152.261 73.5013C140.5 81.2936 118.341 95.5152 102.626 104.991C86.9111 114.467 78.312 118.767 74.5437 120.816C70.7753 122.866 72.0983 122.535 82.8672 116.577C93.636 110.619 113.811 99.043 124.865 92.5837C135.92 86.1244 137.243 85.1322 128.002 92.5586C118.762 99.9851 98.9178 115.86 87.8682 124.865C76.8187 133.87 75.1651 135.524 75.14 135.88C76.7686 135.243 79.7953 132.898 82.792 129.571C84.4657 127.566 86.4501 124.92 89.4969 120.19" stroke="#2DEE39" stroke-width="2" stroke-linecap="round"/>
<path d="M76.4678 158.275C74.4733 160.269 70.4745 164.93 57.8164 179.587C50.019 188.616 45.4189 198.985 42.4122 206.662C41.2402 209.655 41.3899 211.032 44.0358 209.729C52.5843 205.52 58.7484 199.707 60.4222 199.532C62.5726 199.306 58.107 205.36 51.9684 216.304C38.2362 240.786 30.0347 258.487 29.3683 260.487C28.7018 262.486 40.2674 253.917 54.3387 248.646C76.4001 240.38 40.3877 291.561 42.3721 291.245C50.0157 290.029 53.4066 281.889 54.9099 282.541C56.2027 283.101 55.4211 287.161 52.9406 297.795C50.4601 308.428 45.499 326.288 42.9434 336.48C40.3877 346.673 40.3877 348.657 46.1755 342.404C51.9634 336.15 63.5391 321.597 69.833 314.928C76.127 308.258 76.7885 309.911 77.1292 315.89C78.0531 332.098 77.8007 344.338 78.6326 347.505C79.0375 349.047 79.7951 350.341 82.451 346.723C85.1069 343.105 89.7372 334.506 92.6186 329.745C95.5 324.985 96.4922 324.323 97.1687 330.101C99.267 348.022 99.5089 365.355 101.508 373.528C102.384 377.105 103.508 379.386 104.515 381.074C105.522 382.763 106.514 383.755 108.514 381.455C114.652 374.394 117.88 366.748 120.38 365.079C122.37 363.751 126.218 374.314 131.715 393.657C136.21 409.473 143.256 418.492 147.926 422.667C149.818 424.357 151.274 424.526 152.947 423.869C161.751 420.417 167.951 400.933 173.668 390.475C174.355 389.219 175.668 389.127 176.344 389.784C178.153 391.539 180.338 400.082 185.505 411.422C189.629 420.475 196.033 427.172 202.698 432.679C208.394 437.386 214.755 436.562 218.588 435.235C228.071 431.95 233.115 410.294 237.806 403.309C245.816 391.38 256.808 421.158 267.021 423.694C277.662 426.336 287.897 414.884 294.927 408.686C296.62 407.193 298.26 405.524 299.608 405.168C306.381 403.38 317.282 411.497 331.318 411.507C334.049 411.509 335.021 410.515 335.698 409.678C337.011 408.054 337.046 405.834 336.715 403.504C335.662 396.08 323.396 391.152 320.665 389.789C308.71 383.822 345.344 385.8 354.72 380.623C362.5 376.328 362.102 369.754 363.424 367.92C368.66 360.661 384.732 361.767 393.817 356.565C396.786 354.865 397.841 351.383 398.843 348.552C399.359 347.094 399.184 345.39 397.861 344.042C394.634 340.754 386.205 340.68 379.515 340.514C372.355 340.337 400.467 326.368 405.187 319.818C409.166 314.298 405.217 303.958 402.531 298.276C399.243 291.32 411.471 276.638 418.877 264.546C424.932 254.661 419.91 240.497 420.055 233.968C420.261 224.735 427.567 221.435 428.414 217.421C429.529 212.136 427.266 199.446 426.575 189.043C426.237 183.966 429.571 178.35 431.576 172.517C435.455 161.227 423.598 149.957 411.927 137.444C407.149 132.322 394.604 126.585 379.741 119.073C371.155 114.734 360.197 108.525 353.923 104.005C348.321 99.9682 341.756 93.812 336.064 90.3043C333.458 88.6987 331.043 86.7965 329.539 84.2959C328.878 83.1957 329.028 82.1261 329.69 81.2843C330.351 80.4424 331.674 79.7809 333.017 79.2748C334.36 78.7687 335.683 78.4379 338.048 77.095" stroke="#2DEE39" stroke-width="2" stroke-linecap="round"/>
<path d="M142.613 28.9885C141.621 31.9751 138.945 37.9884 136.775 42.1677C136.187 43.3012 135.938 44.6633 136.264 44.5179C138.301 43.6093 139.596 39.6922 140.934 38.1839C142.918 35.9478 138.274 44.0118 137.938 44.1922C134.878 45.836 139.266 36.0241 140.433 33.6789C141.002 32.5374 141.611 37.6577 141.942 39.5018C142.207 40.9838 144.938 34.3604 146.281 33.8242C154.778 30.4321 143.615 52.3503 144.608 52.22C154.688 50.8963 150.29 33.6789 151.623 34.3203C158.271 37.5193 154.299 49.3436 155.797 51.8592C159.716 58.4388 160.653 37.0263 162.472 35.8387C167.929 40.2735 178.292 47.6599 189.803 53.1721C194.699 55.0463 197.675 55.0463 201.744 54.0441" stroke="#2DEE39" stroke-width="2" stroke-linecap="round"/>
<path d="M229.806 23.9773C226.158 24.6387 219.794 26.6432 218.621 26.9839C214.4 28.2104 224.103 18.6555 227.28 16.1399C233.388 11.3036 217.128 31.6443 214.953 33.323C210.753 36.565 220.766 22.3336 225.617 17.3075C230.399 12.3522 218.781 34.3202 219.277 35.9939C219.45 36.5765 220.766 35.6832 221.608 34.681C223.389 32.5609 224.123 29.6699 224.624 27.004C224.874 25.6735 224.795 24.3381 223.968 23.4912C219.754 19.175 208.819 22.6343 198.271 25.1348C194.427 26.9639 191.731 28.9784 189.732 30.6471C188.725 31.3236 187.732 31.6543 186.71 31.9951" stroke="#2DEE39" stroke-width="2" stroke-linecap="round"/>
<path d="M88.4906 59.0518C85.504 62.3591 76.8448 82.3034 72.7958 97.4319C72.1792 99.7356 72.455 101.446 74.4394 98.825C81.241 89.8421 86.7968 76.4804 86.6665 75.4031C86.0469 70.2792 76.945 94.8312 74.685 98.6947C64.6154 115.909 83.4795 63.0707 82.3219 64.0479C76.3985 69.0481 71.5029 84.0272 64.9784 93.9041C59.3036 102.495 73.7779 77.7733 75.4517 77.2572C79.0792 76.1385 71.8136 93.0372 68.6315 105.74C68.0493 108.065 75.0909 99.8724 84.0758 85.7209C89.1745 77.6904 96.3681 68.5929 100.111 64.6492C103.855 60.7054 104.185 62.3591 103.033 67.1798C96.1776 89.7699 95.1754 94.1196 94.3436 96.2844C93.8425 97.457 93.181 98.7799 92.4995 100.143" stroke="#2DEE39" stroke-width="2" stroke-linecap="round"/>
<path d="M31.3643 153.262C31.0336 152.601 30.7029 151.939 29.7056 151.598C28.7084 151.258 27.0548 151.258 25.8721 151.919C24.6895 152.581 24.0281 153.904 23.6873 155.577C23.3465 157.251 23.3465 159.235 24.5041 158.439C25.6617 157.642 27.9768 154.004 29.5002 153.618C32.7855 152.786 32.3666 167.875 32.6973 180.407C32.8014 184.354 33.6895 183.349 35.1878 178.373C39.3452 164.566 41.7173 154.274 42.2184 153.763C42.3888 156.229 41.7273 163.234 40.7251 176.87C40.3843 185.544 40.3843 197.781 40.3843 210.389" stroke="#2DEE39" stroke-width="2" stroke-linecap="round"/>
<path d="M16.3327 261.503C16.0019 261.824 15.9919 266.494 17.9863 270.163C19.0121 272.049 21.3037 273.169 23.4835 273.851C25.6634 274.532 27.9785 274.532 29.5019 273.375C32.7686 270.892 32.0375 265.532 31.0403 261.533C28.7754 252.451 18.3572 249.817 14.5237 248.981C12.709 248.584 11.0209 249.136 10.0036 250.464C8.98637 251.792 8.65563 254.107 8.98135 255.961C9.57649 259.349 13.9674 262.155 19.1339 264.991C23.6706 267.482 29.3315 267.517 34.0069 267.021C35.7667 266.834 36.0364 265.532 35.7107 265.021C35.3849 264.51 34.3927 264.51 33.5509 265.006C31.7283 266.08 30.7046 268.84 29.7023 271.34C29.2462 272.478 29.3616 273.51 29.8577 274.021C33.2389 277.505 41.3482 287.16 45.3871 295.223C47.9334 300.306 49.4061 306.904 50.2379 316.576C51.873 335.586 52.4127 349.619 53.5753 356.7C53.7576 357.81 54.7379 358.699 55.7401 358.549C58.4623 358.14 59.759 354.72 60.2601 352.721C60.5085 351.73 60.4305 350.721 61.7534 352.525C63.0764 354.329 65.7223 358.96 73.8653 367.464C94.6279 389.146 108.878 399.82 107.214 397.656C106.274 396.432 104.889 395.16 104.042 394.975C103.195 394.789 102.865 395.781 103.19 396.954C103.946 399.673 107.515 402.466 115.813 407.122C131.867 416.128 149.238 420.175 158.253 422.18C162.584 423.143 164.982 426.169 171.482 432.528C177.167 438.09 182.692 438.556 183.534 439.228C184.793 440.232 179.705 437.564 179.855 436.732C182.093 424.354 205.051 437.213 207.928 438.226C211.321 439.42 193.806 439.899 187.072 441.057C174.962 443.138 218.361 447.576 232.713 448.413C238.458 448.748 241.111 448.258 244.293 445.111C258.387 431.172 258.51 423.222 264.523 419.865C273.51 414.847 286.532 418.171 294.595 421.012C304.929 424.654 310.646 440.891 312.144 442.395C313.485 443.74 315.988 442.575 317.987 441.578C320.312 440.418 325.308 435.259 334.799 426.439C346.687 415.393 355.716 402.536 362.055 392.7C367.076 384.908 368.775 379.776 370.934 377.942C377.065 372.736 385.111 372.43 397.133 370.084C401.42 369.248 404.183 369.413 406.017 368.416C409.929 366.289 409.204 360.744 410.036 356.564C411.052 351.459 411.209 344.728 408.718 335.042C406.92 328.046 404.193 323.651 404.359 321.652C404.763 316.759 409.184 311.635 424.844 300.134C428.26 297.625 429.229 296.601 429.905 295.429C430.582 294.256 430.913 292.933 430.918 291.425C430.956 279.813 414.556 267.216 414.712 248.72C414.85 232.274 424.218 222.777 426.403 216.759C428.064 212.184 430.572 208.406 433.749 204.061C434.26 202.723 434.26 201.069 431.779 198.729C429.299 196.389 424.338 193.412 419.227 190.346" stroke="#2DEE39" stroke-width="2" stroke-linecap="round"/>
</svg>
